<?xml version="1.0" encoding="utf-8"?>
<!-- Generator: Adobe Illustrator 24.0.1, SVG Export Plug-In . SVG Version: 6.00 Build 0)  -->
<svg version="1.1" id="Слой_1" xmlns="http://www.w3.org/2000/svg" xmlns:xlink="http://www.w3.org/1999/xlink" x="0px" y="0px"
	 viewBox="0 0 25 24" enable-background="new 0 0 25 24" xml:space="preserve">
<path fill="#585858" d="M23.1,7.2C23,7,22.9,6.8,22.8,6.7c-0.1-0.2-0.3-0.3-0.5-0.4s-0.4-0.1-0.6-0.1H17c-0.1-1-0.6-1.8-1.3-2.5
	c-0.8-0.9-2-1.3-3.2-1.3s-2.3,0.5-3.2,1.3C8.6,4.3,8.2,5.2,8.1,6.1H3.8c-0.2,0-0.4,0-0.6,0.1C3,6.3,2.8,6.5,2.7,6.6
	C2.6,6.8,2.5,7,2.4,7.2C2.3,7.4,2.3,7.6,2.3,7.8l1.3,12c0,0.4,0.2,0.7,0.5,0.9c0.3,0.2,0.6,0.4,1,0.4h15.2l0,0c0.4,0,0.7-0.1,1-0.4
	c0.3-0.2,0.5-0.6,0.5-1l1.3-12C23.2,7.6,23.1,7.4,23.1,7.2z M10.4,4.6c1.1-1.1,3.1-1.1,4.2,0c0.4,0.4,0.7,1,0.8,1.5H9.6
	C9.7,5.6,10,5,10.4,4.6z M20.3,19.6L20.3,19.6H5.1l-1.3-12h17.8L20.3,19.6z"/>
</svg>
