<svg width="24" height="24" viewBox="0 0 24 24" fill="none" xmlns="http://www.w3.org/2000/svg">
<g clip-path="url(#clip0_681_18389)">
<g clip-path="url(#clip1_681_18389)">
<path d="M15.7515 13.0047C15.9118 12.5757 15.9932 12.1211 15.9919 11.6631C15.9919 10.646 15.5878 9.67055 14.8686 8.95135C14.1495 8.23216 13.174 7.82813 12.1569 7.82812C11.7045 7.82877 11.2558 7.91018 10.832 8.06851L11.7321 8.9965C11.8689 8.97508 12.0072 8.96387 12.1458 8.96296C12.8649 8.96145 13.5554 9.24456 14.0666 9.75046C14.5777 10.2564 14.8679 10.9439 14.8738 11.6631C14.8729 11.8016 14.8617 11.9399 14.8403 12.0768L15.7515 13.0047Z" fill="#949798"/>
<path d="M20.8357 11.4028C18.9517 7.92004 15.6479 5.8125 11.9918 5.8125C10.9964 5.81465 10.0076 5.97504 9.0625 6.28768L9.96254 7.1933C10.6255 7.02209 11.3071 6.93384 11.9918 6.93056C15.1392 6.93056 18.0014 8.68591 19.7064 11.6432C19.0804 12.7399 18.2513 13.7075 17.2635 14.4942L18.0573 15.2881C19.2014 14.3656 20.1514 13.2256 20.8524 11.9339L20.9978 11.6655L20.8357 11.4028Z" fill="#949798"/>
<path d="M4.39198 4.83295L6.88526 7.32623C5.30898 8.34054 4.02088 9.74417 3.14535 11.4016L3 11.6643L3.14535 11.9326C5.02928 15.4154 8.33315 17.5229 11.9892 17.5229C13.4163 17.5232 14.8249 17.2002 16.1093 16.5782L18.9044 19.3733L19.8827 18.5348L5.34793 4L4.39198 4.83295ZM9.84253 10.2835L13.5601 14.001C13.1402 14.2613 12.6565 14.4006 12.1625 14.4035C11.8036 14.4036 11.4482 14.3326 11.1168 14.1947C10.7854 14.0569 10.4845 13.8548 10.2315 13.6002C9.97844 13.3456 9.77825 13.0435 9.64243 12.7113C9.5066 12.3791 9.43781 12.0232 9.44003 11.6643C9.44604 11.176 9.58521 10.6986 9.84253 10.2835ZM9.03193 9.4729C8.50892 10.2105 8.26378 11.1093 8.33992 12.0103C8.41605 12.9113 8.80855 13.7563 9.44791 14.3957C10.0873 15.035 10.9323 15.4275 11.8332 15.5037C12.7342 15.5798 13.6331 15.3346 14.3707 14.8116L15.2651 15.7061C14.2297 16.1488 13.1153 16.377 11.9892 16.3769C8.84186 16.3769 5.97963 14.6216 4.27459 11.6643C5.09305 10.2156 6.27145 9.00251 7.69585 8.14241L9.03193 9.4729Z" fill="#949798"/>
</g>
</g>
<defs>
<clipPath id="clip0_681_18389">
<rect width="24" height="24" fill="white"/>
</clipPath>
<clipPath id="clip1_681_18389">
<rect width="24" height="24" fill="white"/>
</clipPath>
</defs>
</svg>
