<?xml version="1.0" encoding="utf-8"?>
<!-- Generator: Adobe Illustrator 24.0.1, SVG Export Plug-In . SVG Version: 6.00 Build 0)  -->
<svg version="1.1" id="Слой_1" xmlns="http://www.w3.org/2000/svg" xmlns:xlink="http://www.w3.org/1999/xlink" x="0px" y="0px"
	 viewBox="0 0 20 20" enable-background="new 0 0 20 20" xml:space="preserve">

<path fill="#111111" d="M18.2,3.2c-1-1-2.4-1.6-3.8-1.6c-1.8,0-3.3,0.8-4.3,2c-1-1.3-2.5-2-4.3-2c-1.4,0-2.8,0.6-3.8,1.6
	S0.2,5.6,0.2,7.1c0,6.1,9,11,9.4,11.2c0.1,0.1,0.2,0.1,0.4,0.1s0.2,0,0.4-0.1c0.4-0.2,9.4-5.1,9.4-11.2C19.8,5.6,19.2,4.2,18.2,3.2z
	"/>
</svg>
