<?xml version="1.0" encoding="utf-8"?>
<!-- Generator: Adobe Illustrator 25.3.1, SVG Export Plug-In . SVG Version: 6.00 Build 0)  -->
<svg version="1.1" id="Слой_1" xmlns="http://www.w3.org/2000/svg" xmlns:xlink="http://www.w3.org/1999/xlink" x="0px" y="0px"
	 width="16px" height="16px" viewBox="0 0 16 16" enable-background="new 0 0 16 16" xml:space="preserve">
<g>
	<path fill="#585858" d="M14.4,2.6h-2.7V2.2c0-0.5-0.2-1-0.6-1.4c-0.4-0.4-0.8-0.6-1.4-0.6H6.3c-0.5,0-1,0.2-1.4,0.6
		S4.3,1.7,4.3,2.2v0.4H1.6c-0.4,0-0.8,0.3-0.8,0.8s0.3,0.8,0.8,0.8H2v10.3c0,0.3,0.1,0.7,0.4,0.9c0.2,0.2,0.6,0.4,0.9,0.4h9.3
		c0.3,0,0.7-0.1,0.9-0.4c0.2-0.2,0.4-0.6,0.4-0.9V4.1h0.4c0.4,0,0.8-0.3,0.8-0.8S14.8,2.6,14.4,2.6z M5.8,2.2c0-0.1,0-0.2,0.1-0.3
		s0.2-0.1,0.3-0.1h3.5c0.1,0,0.2,0,0.3,0.1c0.1,0.1,0.1,0.2,0.1,0.3v0.4H5.8V2.2z M12.5,14.2h-9V4.1h9V14.2z"/>
	<path fill="#585858" d="M6.3,12.2c0.4,0,0.8-0.3,0.8-0.8V6.8c0-0.4-0.3-0.8-0.8-0.8S5.5,6.4,5.5,6.8v4.7
		C5.5,11.9,5.8,12.2,6.3,12.2z"/>
	<path fill="#585858" d="M9.7,12.2c0.4,0,0.8-0.3,0.8-0.8V6.8c0-0.4-0.3-0.8-0.8-0.8S9,6.4,9,6.8v4.7C9,11.9,9.3,12.2,9.7,12.2z"/>
</g>
</svg>
